<svg width="40" height="35" viewBox="0 0 40 35" fill="none" xmlns="http://www.w3.org/2000/svg">
<path fill-rule="evenodd" clip-rule="evenodd" d="M26.3045 34.8341V27.7333H29.1374V24.9004H19.5234V27.7333H22.331V34.8341H26.3045Z" fill="#C4C4C4"/>
<path fill-rule="evenodd" clip-rule="evenodd" d="M11.5756 5.61621C13.7415 5.27537 15.9269 5.072 18.1186 5.00731C18.7278 4.87413 19.4695 5.32483 19.3636 5.98707V6.41091L19.3371 19.9207H20.6616V5.98707C20.5553 5.32483 21.35 4.87413 21.9327 5.00731C24.1157 5.07222 26.2924 5.27559 28.4496 5.61621C30.277 5.88111 32.2906 6.2516 34.171 6.67581C33.1118 4.66258 31.0717 2.91425 28.4496 1.7222C25.7819 0.585783 22.9122 0 20.0126 0C17.113 0 14.2432 0.585783 11.5756 1.7222C10.7207 2.10171 9.90455 2.56302 9.13851 3.09968C7.75579 4.01864 6.61167 5.25355 5.80078 6.7023C6.91299 6.43703 8.0263 6.224 9.13851 6.01356C9.95969 5.88111 10.7809 5.74866 11.5756 5.61621Z" fill="#C4C4C4"/>
<path fill-rule="evenodd" clip-rule="evenodd" d="M23.8935 6.91406C23.2839 7.01965 22.8865 7.28492 22.753 7.76027C22.6715 8.40479 22.6985 9.0584 22.8328 9.69402L24.8195 19.3893C26.0666 19.116 27.2827 18.7166 28.449 18.1973C32.3956 16.3945 35.0185 13.3776 35.0185 9.95856C35.0164 9.39582 34.9453 8.83545 34.8066 8.29006C32.6874 7.89272 30.5682 7.54835 28.449 7.30994C26.9395 7.12598 25.403 6.99353 23.8935 6.91406Z" fill="#C4C4C4"/>
<path fill-rule="evenodd" clip-rule="evenodd" d="M36.106 34.8341H40L36.1851 24.9004H31.9751L28.4519 34.1189L28.1602 34.8341H32.0523L34.0924 28.8739L36.106 34.8341Z" fill="#C4C4C4"/>
<path fill-rule="evenodd" clip-rule="evenodd" d="M9.13876 16.8217C9.90489 17.3583 10.721 17.8196 11.5758 18.1992C12.7519 18.7236 13.9764 19.1318 15.2318 19.4181L17.2443 9.69598C17.365 9.05873 17.3919 8.40725 17.3241 7.76221C17.1917 7.28393 16.7678 7.02014 16.1586 6.91602C14.6501 6.99549 13.1122 7.12793 11.5758 7.31336C10.7811 7.41895 9.95995 7.52528 9.13876 7.63087C7.81427 7.84316 6.48979 8.05508 5.19179 8.29312C5.05611 8.83908 4.98485 9.39907 4.97949 9.96161C4.97949 12.6099 6.56925 15.0469 9.13876 16.8217Z" fill="#C4C4C4"/>
<path fill-rule="evenodd" clip-rule="evenodd" d="M14.569 28.8739L16.6087 34.8341H20.4766L19.9983 33.5891L16.6871 24.9004H12.4752L11.5745 27.2054L9.13746 33.5894L8.65918 34.8345H12.5532L14.569 28.8739Z" fill="#C4C4C4"/>
<path fill-rule="evenodd" clip-rule="evenodd" d="M2.83402 34.8341H6.80752V27.7333H9.61543V24.9004H0V27.7333H2.83292L2.83402 34.8341Z" fill="#C4C4C4"/>
</svg>
