<svg width="247" height="44" viewBox="0 0 247 44" fill="none" xmlns="http://www.w3.org/2000/svg">
<path d="M127.424 37H125.783L122.902 27.4395C122.766 27.0163 122.613 26.4824 122.443 25.8379C122.274 25.1934 122.186 24.806 122.18 24.6758C122.036 25.5352 121.809 26.4759 121.496 27.498L118.703 37H117.062L113.264 22.7227H115.021L117.277 31.541C117.59 32.778 117.818 33.8978 117.961 34.9004C118.137 33.709 118.397 32.5436 118.742 31.4043L121.301 22.7227H123.059L125.744 31.4824C126.057 32.4915 126.32 33.6309 126.535 34.9004C126.659 33.9759 126.893 32.8496 127.238 31.5215L129.484 22.7227H131.242L127.424 37ZM146.871 29.8418C146.871 32.127 146.292 33.9238 145.133 35.2324C143.98 36.541 142.376 37.1953 140.318 37.1953C138.215 37.1953 136.591 36.554 135.445 35.2715C134.306 33.9824 133.736 32.166 133.736 29.8223C133.736 27.498 134.309 25.6979 135.455 24.4219C136.601 23.1393 138.229 22.498 140.338 22.498C142.389 22.498 143.99 23.1491 145.143 24.4512C146.295 25.7533 146.871 27.5501 146.871 29.8418ZM135.494 29.8418C135.494 31.7754 135.904 33.2435 136.725 34.2461C137.551 35.2422 138.749 35.7402 140.318 35.7402C141.9 35.7402 143.095 35.2422 143.902 34.2461C144.71 33.25 145.113 31.7819 145.113 29.8418C145.113 27.9212 144.71 26.4661 143.902 25.4766C143.102 24.4805 141.913 23.9824 140.338 23.9824C138.756 23.9824 137.551 24.4837 136.725 25.4863C135.904 26.4824 135.494 27.9342 135.494 29.8418ZM152.725 31.0625V37H151.064V22.7227H154.98C156.732 22.7227 158.024 23.0579 158.857 23.7285C159.697 24.3991 160.117 25.4082 160.117 26.7559C160.117 28.6439 159.16 29.9199 157.246 30.584L161.123 37H159.16L155.703 31.0625H152.725ZM152.725 29.6367H155C156.172 29.6367 157.031 29.4056 157.578 28.9434C158.125 28.4746 158.398 27.7747 158.398 26.8438C158.398 25.8997 158.118 25.2194 157.559 24.8027C157.005 24.3861 156.113 24.1777 154.883 24.1777H152.725V29.6367ZM174.74 37H172.787L167.582 30.0762L166.088 31.4043V37H164.428V22.7227H166.088V29.8027L172.562 22.7227H174.525L168.783 28.9238L174.74 37ZM186.766 26.8828C186.766 28.3281 186.271 29.4414 185.281 30.2227C184.298 30.9974 182.889 31.3848 181.053 31.3848H179.373V37H177.713V22.7227H181.414C184.982 22.7227 186.766 24.1094 186.766 26.8828ZM179.373 29.959H180.867C182.339 29.959 183.403 29.7214 184.061 29.2461C184.718 28.7708 185.047 28.0091 185.047 26.9609C185.047 26.0169 184.738 25.3138 184.119 24.8516C183.501 24.3893 182.537 24.1582 181.229 24.1582H179.373V29.959ZM190.764 37V22.7227H192.424V35.4961H198.723V37H190.764ZM211.129 37L209.352 32.459H203.629L201.871 37H200.191L205.836 22.6641H207.232L212.848 37H211.129ZM208.834 30.9648L207.174 26.541C206.959 25.9811 206.738 25.2943 206.51 24.4805C206.367 25.1055 206.161 25.7923 205.895 26.541L204.215 30.9648H208.834ZM221.924 24.002C220.355 24.002 219.115 24.526 218.203 25.5742C217.298 26.6159 216.846 28.0449 216.846 29.8613C216.846 31.7298 217.282 33.1751 218.154 34.1973C219.033 35.2129 220.283 35.7207 221.904 35.7207C222.9 35.7207 224.036 35.5417 225.312 35.1836V36.6387C224.323 37.0098 223.102 37.1953 221.65 37.1953C219.548 37.1953 217.923 36.5573 216.777 35.2812C215.638 34.0052 215.068 32.1921 215.068 29.8418C215.068 28.3704 215.342 27.0814 215.889 25.9746C216.442 24.8678 217.236 24.015 218.271 23.416C219.313 22.8171 220.537 22.5176 221.943 22.5176C223.441 22.5176 224.749 22.791 225.869 23.3379L225.166 24.7637C224.085 24.2559 223.005 24.002 221.924 24.002ZM237.387 37H229.428V22.7227H237.387V24.1973H231.088V28.7969H237.006V30.2617H231.088V35.5156H237.387V37Z" fill="#DC3E15"/>
<path d="M119.764 18L116.844 7.7168H116.756C116.893 9.4681 116.961 10.8288 116.961 11.7988V18H113.543V3.72266H118.68L121.658 13.8594H121.736L124.656 3.72266H129.803V18H126.258V11.7402C126.258 11.4147 126.261 11.0534 126.268 10.6562C126.281 10.2591 126.326 9.28581 126.404 7.73633H126.316L123.436 18H119.764ZM146.238 10.8418C146.238 13.2441 145.649 15.0703 144.471 16.3203C143.292 17.5703 141.567 18.1953 139.295 18.1953C137.055 18.1953 135.337 17.5671 134.139 16.3105C132.947 15.054 132.352 13.2246 132.352 10.8223C132.352 8.44596 132.944 6.63281 134.129 5.38281C135.32 4.1263 137.049 3.49805 139.314 3.49805C141.587 3.49805 143.309 4.11979 144.48 5.36328C145.652 6.60677 146.238 8.43294 146.238 10.8418ZM136.414 10.8418C136.414 13.6022 137.374 14.9824 139.295 14.9824C140.271 14.9824 140.994 14.6471 141.463 13.9766C141.938 13.306 142.176 12.2611 142.176 10.8418C142.176 9.41602 141.935 8.36458 141.453 7.6875C140.978 7.00391 140.265 6.66211 139.314 6.66211C137.381 6.66211 136.414 8.05534 136.414 10.8418ZM160.936 10.5586C160.936 12.9414 160.278 14.7773 158.963 16.0664C157.654 17.3555 155.812 18 153.436 18H148.816V3.72266H153.758C156.049 3.72266 157.817 4.30859 159.061 5.48047C160.311 6.65234 160.936 8.34505 160.936 10.5586ZM156.932 10.6953C156.932 9.38672 156.671 8.41667 156.15 7.78516C155.636 7.15365 154.852 6.83789 153.797 6.83789H152.674V14.8359H153.533C154.705 14.8359 155.564 14.4974 156.111 13.8203C156.658 13.1367 156.932 12.0951 156.932 10.6953ZM171.98 18H163.504V3.72266H171.98V6.81836H167.361V9.06445H171.639V12.1602H167.361V14.8555H171.98V18ZM178.338 12.8047V18H174.48V3.72266H179.158C183.038 3.72266 184.979 5.12891 184.979 7.94141C184.979 9.59505 184.171 10.8743 182.557 11.7793L186.717 18H182.342L179.314 12.8047H178.338ZM178.338 9.9043H179.061C180.408 9.9043 181.082 9.30859 181.082 8.11719C181.082 7.13411 180.421 6.64258 179.1 6.64258H178.338V9.9043ZM201.609 18H196.551L191.336 7.94141H191.248C191.372 9.52344 191.434 10.7311 191.434 11.5645V18H188.016V3.72266H193.055L198.25 13.6445H198.309C198.217 12.2057 198.172 11.0501 198.172 10.1777V3.72266H201.609V18Z" fill="#DC3E15"/>
<line opacity="0.5" x1="100.01" y1="2" x2="100.01" y2="38" stroke="#DC3E15"/>
<path fill-rule="evenodd" clip-rule="evenodd" d="M53.351 2.00035H44.2602V4.70248H46.94V11.4032H50.6966V4.70248H53.351V2.00035ZM55.8979 15.3253H48.7841V16.7498H51.4891V24.7263H53.1926V16.7498H55.8976L55.8979 15.3253ZM30.8804 19.2505C29.6285 18.7753 29.0773 18.4256 29.0773 17.7003C29.0773 17.1503 29.5532 16.5759 30.6296 16.5759C31.2832 16.5692 31.9284 16.7234 32.508 17.025L32.9345 15.6247C32.2272 15.305 31.4559 15.1512 30.6797 15.1753C28.6264 15.1753 27.3497 16.3247 27.3497 17.876C27.3497 19.2261 28.326 20.051 29.8787 20.6006C31.0808 21.0261 31.5564 21.4516 31.5564 22.1512C31.5564 22.926 30.9303 23.452 29.8536 23.452C29.0569 23.4359 28.2755 23.2302 27.5744 22.8519L27.1988 24.2765C27.982 24.6748 28.8492 24.8807 29.7282 24.8769C32.1582 24.8769 33.3102 23.5529 33.3102 22.026C33.3084 20.6754 32.5062 19.8753 30.8787 19.2505H30.8804ZM45.882 15.3253H44.1537V24.7263H49.7385V23.277H45.8809L45.882 15.3253ZM40.4731 20.8003C40.4731 22.6508 39.7204 23.476 38.4939 23.476C37.3165 23.476 36.5653 22.6261 36.5653 20.8003V15.3253H34.8374V20.7005C34.8374 23.651 36.265 24.8769 38.4187 24.8769C40.6979 24.8769 42.2003 23.5765 42.2003 20.6754V15.3253H40.4731V20.8003ZM24.0433 18.5999C24.0275 19.9018 24.0776 21.2036 24.1935 22.5005H24.1691C23.7045 21.4168 23.1689 20.3648 22.5659 19.3514L20.1111 15.3256H18.1581V24.7267H19.7609V21.3514C19.7609 19.8009 19.7358 18.5763 19.6602 17.3506H19.7108C20.205 18.4583 20.7652 19.5354 21.3881 20.5763L23.8422 24.7274H25.621V15.3263H24.044L24.0433 18.5999ZM41.557 2H37.6L34.446 10.2015L33.9951 11.4018H37.6509L39.5771 5.77603L41.4803 11.4021H45.1616L44.711 10.2276L41.557 2ZM56.0578 2L52.9037 10.2015L52.4528 11.4018H56.1316L58.0345 5.77603L59.9631 11.4021H63.6444L60.0387 2.00035L56.0578 2ZM34.8951 2H25.8024V4.70248H28.4568V11.4032H32.2141V4.70248H34.8933L34.8951 2ZM12.3227 15.1495C12.2973 15.1495 12.2722 15.1749 12.2474 15.1749C9.61774 15.1996 7.83892 17.2254 7.83892 20.0775C7.83892 22.8533 9.51703 24.8784 12.1715 24.8784H12.2467C14.8015 24.8533 16.6796 23.0533 16.6796 19.9268C16.6786 17.2272 15.0503 15.1499 12.3209 15.1499L12.3227 15.1495ZM12.2474 23.5014C10.5944 23.5014 9.64284 21.9268 9.64284 20.0506C9.64284 18.1744 10.5446 16.5494 12.2474 16.5251C13.9754 16.5251 14.8517 18.1998 14.8517 19.9759C14.8499 21.9508 13.923 23.5017 12.2456 23.5017L12.2474 23.5014ZM5.13467 16.5755C5.76342 16.5721 6.38598 16.6995 6.96259 16.9499L7.33785 15.575C6.6149 15.2831 5.83839 15.1467 5.05905 15.1749C2.17917 15.1749 0 17.0247 0 20.1251C0 22.9761 1.82791 24.8766 4.8085 24.8766C5.65013 24.9121 6.48899 24.7581 7.26295 24.426L6.98696 23.0766C6.38772 23.3072 5.75106 23.4256 5.10886 23.4259C3.03004 23.4259 1.82827 22.1018 1.82827 20.0506C1.82719 17.7754 3.20424 16.5759 5.13288 16.5759L5.13467 16.5755ZM42.4817 32.7471C42.1068 33.8976 41.7555 35.0477 41.5054 36.1467H41.4803C41.2294 35.0213 40.929 33.9209 40.553 32.721L39.2767 28.4447H37.3986L40.453 37.8476H42.4319L45.6881 28.4447H43.8347L42.4817 32.7471ZM24.8257 33.6969H28.3543V32.2719H24.8228V29.8714H28.5798V28.4461H23.096V37.849H28.7823V36.448H24.8236L24.8257 33.6969ZM46.6891 37.8479H48.416V28.4451H46.6891V37.8479ZM34.8675 33.4463V33.3966C35.3599 33.2365 35.7894 32.9256 36.0949 32.5081C36.4005 32.0906 36.5667 31.5877 36.57 31.0706C36.5833 30.7184 36.5183 30.3676 36.3797 30.0434C36.2411 29.7192 36.0324 29.4296 35.7685 29.1954C35.0719 28.7291 34.2535 28.4769 33.4148 28.4701C33.2399 28.4701 33.0643 28.4447 32.8639 28.4447C31.9997 28.4409 31.1366 28.5077 30.2833 28.6444V37.8476H31.9858V34.0211H32.8378C33.0324 34.0176 33.2266 34.043 33.4137 34.0966C33.9901 34.2712 34.3148 34.7217 34.5166 35.6464C34.6704 36.3945 34.8793 37.1302 35.1417 37.8476H36.895C36.6013 36.9956 36.3588 36.1269 36.1689 35.246C35.9434 34.3481 35.5424 33.6972 34.8668 33.4474L34.8675 33.4463ZM33.4148 32.7464C33.274 32.7683 33.1314 32.7768 32.989 32.7718H31.9855V29.8206C32.3323 29.7564 32.6853 29.7315 33.0378 29.7462C33.1635 29.7421 33.2893 29.7504 33.4134 29.7709C34.3144 29.8707 34.866 30.346 34.866 31.2467C34.8668 32.0475 34.3152 32.5982 33.4141 32.7475L33.4148 32.7464ZM69.0773 32.3718C67.7995 31.8965 67.2741 31.5712 67.2741 30.8459C67.2741 30.2959 67.7242 29.7215 68.8271 29.7215C69.4774 29.7167 70.12 29.8619 70.7048 30.1459L71.1056 28.7707C70.403 28.4347 69.6298 28.2719 68.8511 28.2962C66.8232 28.2962 65.5204 29.4706 65.5204 30.9958C65.5204 32.3456 66.5221 33.1966 68.0751 33.7462C69.2525 34.1717 69.7292 34.5972 69.7292 35.2968C69.7292 36.0719 69.1278 36.5718 68.026 36.5718C67.2273 36.5683 66.4426 36.3619 65.7458 35.972L65.3709 37.3974C66.1598 37.8041 67.0369 38.0105 67.9246 37.9982C70.3543 37.9982 71.4812 36.6974 71.4812 35.1712C71.4812 33.8225 70.7048 32.9972 69.0773 32.3728V32.3718ZM60.3118 33.6958H63.8677V32.2708H60.3118V29.8711H64.0681V28.4451H58.5843V37.8479H64.2677V36.4469H60.3108L60.3118 33.6958ZM55.0019 29.7211C55.6312 29.7117 56.255 29.8395 56.8298 30.0954L57.2069 28.7206C56.4867 28.4172 55.7094 28.2723 54.9281 28.2958C52.0471 28.2958 49.893 30.1703 49.893 33.27C49.893 36.1213 51.6966 37.9971 54.7019 37.9971C55.5323 38.0227 56.3592 37.8777 57.1313 37.5713L56.8556 36.2215C56.2578 36.4571 55.6202 36.5757 54.9775 36.5708C52.8987 36.5708 51.6966 35.2467 51.6966 33.1712C51.6962 30.9225 53.0736 29.7226 55.0019 29.7226V29.7211ZM86.4275 17.7235C86.1013 18.3995 85.8254 18.9993 85.601 19.5994H85.5759C85.325 18.9492 85.0741 18.4242 84.7487 17.7235L83.6218 15.3238H81.6688L84.6491 20.7989V24.7245H86.3519V20.7495L89.4819 15.3235H87.5533L86.4275 17.7235ZM19.1384 32.3714C17.861 31.8961 17.3352 31.5709 17.3352 30.8455C17.3352 30.2955 17.7861 29.7211 18.8878 29.7211C19.5385 29.7162 20.1815 29.8614 20.7667 30.1455L21.167 28.7703C20.4645 28.4342 19.6915 28.2715 18.9129 28.2958C16.885 28.2958 15.5822 29.4703 15.5822 30.9954C15.5822 32.3452 16.5836 33.1962 18.1373 33.7459C19.314 34.1714 19.7903 34.5969 19.7903 35.2964C19.7903 36.0715 19.1893 36.5715 18.0871 36.5715C17.2885 36.5679 16.5039 36.3615 15.8072 35.9717L15.432 37.397C16.2211 37.8032 17.0983 38.0093 17.986 37.9971C20.4161 37.9971 21.543 36.6971 21.543 35.1701C21.5444 33.8225 20.7667 32.9972 19.1384 32.3728V32.3714ZM70.7239 18.5988C70.7079 19.9007 70.7582 21.2026 70.8744 22.4994H70.85C70.3856 21.4155 69.8498 20.3635 69.2461 19.3503L66.8175 15.3245H64.8386V24.7256H66.4422V21.3503C66.4422 19.7998 66.4164 18.5752 66.3415 17.3496H66.392C66.886 18.4573 67.446 19.5344 68.069 20.5752L70.5231 24.7263H72.327V15.3253H70.7239V18.5988ZM78.9137 16.5745C79.543 16.5651 80.1668 16.6929 80.7416 16.9488L81.1176 15.5739C80.3945 15.282 79.6178 15.1456 78.8384 15.1738C75.9592 15.1738 73.8052 17.0236 73.8052 20.124C73.8052 22.975 75.6084 24.8755 78.613 24.8755C79.4464 24.9087 80.2767 24.7547 81.0427 24.425L80.767 23.0755C80.169 23.3109 79.5313 23.4294 78.8886 23.4248C76.8098 23.4248 75.6084 22.1007 75.6084 20.0495C75.608 17.7754 76.9843 16.5759 78.9137 16.5759V16.5745ZM58.3018 15.3238L55.5729 23.7504L55.2714 24.7249H57.051L57.851 22.0496H60.8308L61.6835 24.7249H63.5358L60.481 15.3238H58.3018ZM58.1273 20.7499L58.8527 18.4493C59.028 17.8746 59.1785 17.2243 59.3043 16.6736H59.3287C59.3286 16.6769 59.3292 16.6802 59.3304 16.6833C59.3316 16.6865 59.3335 16.6893 59.3358 16.6916C59.3382 16.694 59.341 16.6959 59.3441 16.6972C59.3471 16.6984 59.3505 16.6991 59.3538 16.699C59.4792 17.249 59.6301 17.8746 59.8047 18.4493L60.5573 20.7499H58.1273Z" fill="#DC3E15"/>
</svg>
